<svg width="35" height="35" viewBox="0 0 35 35" fill="none" xmlns="http://www.w3.org/2000/svg">
<path d="M24.9038 16.1538C24.9038 17.6182 24.4696 19.0496 23.6561 20.2672C22.8425 21.4848 21.6862 22.4337 20.3333 22.9941C18.9805 23.5545 17.4918 23.7011 16.0556 23.4154C14.6194 23.1297 13.3001 22.4246 12.2647 21.3892C11.2292 20.3537 10.5241 19.0345 10.2384 17.5983C9.95274 16.1621 10.0994 14.6734 10.6597 13.3205C11.2201 11.9676 12.1691 10.8113 13.3866 9.99777C14.6042 9.18423 16.0357 8.75 17.5 8.75C19.4629 8.75222 21.3448 9.53299 22.7329 10.921C24.1209 12.309 24.9016 14.1909 24.9038 16.1538ZM35 17.5C35 20.9612 33.9736 24.3446 32.0507 27.2225C30.1278 30.1003 27.3947 32.3433 24.197 33.6679C20.9993 34.9924 17.4806 35.339 14.0859 34.6637C10.6913 33.9885 7.57306 32.3218 5.12564 29.8744C2.67822 27.4269 1.01151 24.3087 0.336265 20.9141C-0.338976 17.5194 0.00758248 14.0007 1.33212 10.803C2.65665 7.60533 4.89967 4.87221 7.77753 2.94928C10.6554 1.02636 14.0388 0 17.5 0C22.1398 0.00489969 26.5881 1.85022 29.869 5.13104C33.1498 8.41187 34.9951 12.8602 35 17.5ZM32.3077 17.5C32.3055 15.5069 31.9015 13.5347 31.1196 11.7014C30.3378 9.86803 29.1942 8.21119 27.7574 6.82994C26.3205 5.44868 24.6198 4.37139 22.7571 3.66248C20.8943 2.95357 18.9077 2.62761 16.9161 2.70409C8.99063 3.01034 2.67044 9.61154 2.69231 17.5421C2.69991 21.1523 4.03144 24.6344 6.43462 27.3286C7.41331 25.9091 8.65652 24.6916 10.0962 23.7428C10.2189 23.6617 10.3648 23.6231 10.5116 23.6328C10.6584 23.6425 10.7979 23.7001 10.9089 23.7966C12.7383 25.3789 15.0762 26.2498 17.495 26.2498C19.9137 26.2498 22.2516 25.3789 24.081 23.7966C24.192 23.7001 24.3315 23.6425 24.4783 23.6328C24.6251 23.6231 24.771 23.6617 24.8938 23.7428C26.3352 24.6911 27.5802 25.9086 28.5603 27.3286C30.9754 24.6246 32.3095 21.1255 32.3077 17.5Z" fill="#02CA74"/>
</svg>
